<svg xmlns="http://www.w3.org/2000/svg" width="150.666" height="74"><linearGradient id="a" gradientUnits="userSpaceOnUse" x1="9.648" y1="12.421" x2="45.811" y2="39.039"><stop offset="0" stop-color="#c34f9c"/><stop offset="1" stop-color="#242258"/></linearGradient><circle fill="url(#a)" cx="24.353" cy="23.244" r="21.666"/><path fill="#FFF" d="M36.384 21.385c.211-.117.431-.264.659-.439s.448-.357.659-.545.401-.366.571-.536.302-.319.396-.448a.351.351 0 01.281-.123c.199 0 .36.073.483.22s.185.302.185.466a.593.593 0 01-.07.299c-.141.188-.319.396-.536.624s-.469.46-.756.694-.601.472-.94.712-.691.466-1.055.677c-.199 2.309-.683 4.321-1.45 6.038s-1.746 3.149-2.936 4.298-2.549 2.007-4.078 2.575-3.155.853-4.878.853c-.938 0-1.884-.1-2.839-.299s-1.872-.507-2.751-.923-1.699-.943-2.461-1.582-1.424-1.4-1.986-2.285-1.005-1.893-1.327-3.023-.483-2.399-.483-3.806c0-1.395.167-2.716.501-3.964s.826-2.408 1.477-3.48 1.45-2.039 2.399-2.9 2.045-1.603 3.287-2.224a.702.702 0 01.773.106.584.584 0 01.211.475c0 .129-.038.249-.114.36s-.179.196-.308.255l-.659.325c-.369.181-.809.46-1.318.835s-1.055.853-1.635 1.433-1.113 1.286-1.6 2.118-.891 1.799-1.213 2.9-.483 2.355-.483 3.762c0 1.289.138 2.426.413 3.41s.642 1.846 1.099 2.584.981 1.365 1.573 1.881 1.201.943 1.828 1.283 1.251.609 1.872.809 1.192.346 1.714.439.964.152 1.327.176.604.035.721.035c1.453 0 2.842-.229 4.166-.686s2.514-1.163 3.568-2.118 1.942-2.171 2.663-3.647 1.21-3.234 1.468-5.273c-.762.34-1.556.606-2.382.8s-1.69.29-2.593.29c-1.242 0-2.449-.161-3.621-.483s-2.209-.809-3.111-1.459-1.629-1.462-2.18-2.435-.826-2.109-.826-3.41c0-1.055.185-2.001.554-2.839s.87-1.553 1.503-2.145 1.365-1.043 2.197-1.354 1.705-.466 2.619-.466c.75 0 1.503.088 2.259.264a9.022 9.022 0 014.131 2.214c.603.562 1.131 1.236 1.582 2.021s.806 1.679 1.063 2.681.387 2.124.387 3.366v.614zm-1.371.826c.035-.457.053-.914.053-1.371 0-1.664-.243-3.088-.729-4.271s-1.119-2.15-1.898-2.9-1.655-1.298-2.628-1.644-1.945-.519-2.918-.519c-.75 0-1.456.123-2.118.369s-1.242.604-1.74 1.072-.891 1.046-1.178 1.731-.431 1.468-.431 2.347c0 .844.179 1.655.536 2.435s.888 1.471 1.591 2.074 1.579 1.084 2.628 1.441 2.271.536 3.665.536c.949 0 1.854-.117 2.716-.352s1.677-.55 2.451-.948z"/><path fill="#24235A" d="M54.558 33.18c.266.594.703 1.066 1.313 1.418s1.297.527 2.063.527c.234 0 .617-.035 1.148-.105s1.145-.305 1.84-.703 1.434-1.027 2.215-1.887 1.539-2.07 2.273-3.633c.078-.172.188-.301.328-.387s.297-.129.469-.129c.266 0 .48.094.645.281s.246.391.246.609c0 .094-.031.219-.094.375-.547 1.141-1.156 2.16-1.828 3.059s-1.398 1.664-2.18 2.297-1.598 1.117-2.449 1.453-1.723.504-2.613.504c-.703 0-1.363-.109-1.98-.328s-1.148-.512-1.594-.879-.797-.781-1.055-1.242-.387-.934-.387-1.418c0-.063.008-.148.023-.258s.059-.23.129-.363.172-.258.305-.375.316-.215.551-.293c.641-.188 1.23-.418 1.77-.691s1.004-.582 1.395-.926.695-.723.914-1.137.328-.863.328-1.348c0-.422-.141-.766-.422-1.031s-.625-.398-1.031-.398c-.422 0-.836.145-1.242.434s-.801.672-1.184 1.148-.746 1.023-1.09 1.641-.66 1.262-.949 1.934-.543 1.34-.762 2.004-.398 1.277-.539 1.84c-.047.172-.098.359-.152.563s-.137.395-.246.574-.242.328-.398.445-.359.176-.609.176c-.234 0-.461-.098-.68-.293s-.328-.527-.328-.996a1292.177 1292.177 0 01.106-6.996c.024-1.305.043-2.688.059-4.148s.039-2.965.07-4.512.055-3.055.07-4.523.035-2.863.059-4.184.043-2.492.059-3.516.027-1.859.035-2.508.012-1.035.012-1.16c0-.25.094-.457.281-.621a.908.908 0 011.242 0 .85.85 0 01.258.645l-.012.926-.035 2.355c-.015.984-.035 2.133-.059 3.445s-.047 2.707-.07 4.184l-.07 4.559-.07 4.57c-.023 1.484-.043 2.898-.059 4.242s-.031 2.531-.047 3.563c.25-.797.57-1.637.961-2.52s.852-1.699 1.383-2.449 1.129-1.367 1.793-1.852 1.402-.727 2.215-.727c.453 0 .875.082 1.266.246s.73.391 1.02.68.516.629.68 1.02.246.813.246 1.266c0 .703-.156 1.348-.469 1.934s-.727 1.109-1.242 1.57-1.105.863-1.77 1.207-1.352.623-2.055.842z"/><path fill="#24235A" d="M83.526 29.523c-.063.125-.191.387-.387.785s-.445.855-.75 1.371-.66 1.055-1.066 1.617-.859 1.078-1.359 1.547-1.039.855-1.617 1.16-1.188.457-1.828.457c-.906 0-1.668-.289-2.285-.867s-1.066-1.305-1.348-2.18c-.531.891-1.164 1.598-1.898 2.121s-1.469.785-2.203.785c-.578 0-1.102-.105-1.57-.316s-.867-.508-1.195-.891-.582-.832-.762-1.348-.27-1.078-.27-1.688c0-1.219.207-2.293.621-3.223s.941-1.707 1.582-2.332 1.348-1.094 2.121-1.406 1.52-.469 2.238-.469c.484 0 .93.066 1.336.199s.754.277 1.043.434.512.301.668.434.242.207.258.223c.172.203.258.414.258.633 0 .234-.086.441-.258.621s-.375.27-.609.27a.86.86 0 01-.633-.258 2.665 2.665 0 00-.656-.446c-.187-.094-.41-.176-.668-.246s-.551-.105-.879-.105c-.484 0-1 .109-1.547.328s-1.047.559-1.5 1.02-.832 1.039-1.137 1.734-.457 1.52-.457 2.473c0 .297.031.598.094.902s.172.582.328.832.367.453.633.609.594.234.984.234c.281 0 .605-.094.973-.281s.719-.477 1.055-.867.641-.883.914-1.477.465-1.297.574-2.109c.031-.219.133-.402.305-.551s.375-.223.609-.223c.219 0 .41.086.574.258s.254.367.27.586c.016.297.047.715.094 1.254s.152 1.074.316 1.605.41.992.738 1.383.781.586 1.359.586c.375 0 .746-.102 1.113-.305s.727-.473 1.078-.809.688-.719 1.008-1.148.613-.863.879-1.301.5-.859.703-1.266.375-.758.516-1.055a.892.892 0 01.82-.539c.266 0 .48.098.645.293s.246.402.246.621a.825.825 0 01-.071.331z"/><path fill="#24235A" d="M100.894 12.602c0 .25-.086.449-.258.598s-.383.223-.633.223H88.12v.258c0 .953-.07 1.969-.211 3.047s-.332 2.152-.574 3.223a47.194 47.194 0 01-1.758 5.942c-.321.86-.637 1.605-.949 2.238s-.594 1.105-.844 1.418c.203.719.445 1.387.727 2.004s.598 1.156.949 1.617.73.824 1.137 1.09.844.398 1.313.398c.547 0 1.09-.23 1.629-.691s1.039-1.008 1.5-1.641.867-1.273 1.219-1.922.605-1.168.762-1.559c.156-.375.43-.563.82-.563.266 0 .48.094.645.281s.246.391.246.609c0 .109-.023.219-.07.328s-.16.359-.34.75-.414.844-.703 1.359-.625 1.059-1.008 1.629-.813 1.09-1.289 1.559-.988.859-1.535 1.172-1.125.469-1.734.469c-1.078 0-2.047-.352-2.906-1.055s-1.59-1.688-2.191-2.953-1.059-2.766-1.371-4.5-.469-3.633-.469-5.695c0-.516.008-1.121.023-1.816s.047-1.43.094-2.203.117-1.57.211-2.391.219-1.621.375-2.402h-8.414c-.25 0-.461-.074-.633-.223s-.258-.348-.258-.598.086-.449.258-.598.383-.223.633-.223h8.813c.156-.563.34-1.078.551-1.547s.453-.875.727-1.219.578-.613.914-.809.707-.293 1.113-.293c.391 0 .73.098 1.02.293s.535.465.738.809.363.75.48 1.219.207.984.27 1.547h11.977c.25 0 .461.074.633.223s.254.348.254.598zM83.245 27.203c.469-1.031.895-2.145 1.277-3.34s.711-2.402.984-3.621.484-2.414.633-3.586.223-2.25.223-3.234h-2.766c-.219.969-.395 2.168-.527 3.598s-.199 3.168-.199 5.215c0 1.141.031 2.098.094 2.871s.156 1.472.281 2.097zm2.18-17.531c-.141 0-.344.152-.609.457s-.531.855-.797 1.652h2.25c-.078-.656-.191-1.172-.34-1.547s-.317-.562-.504-.562z"/><path fill="#24235A" d="M111.229 29.523c-.063.125-.191.387-.387.785s-.445.855-.75 1.371-.66 1.055-1.066 1.617-.859 1.078-1.359 1.547-1.039.855-1.617 1.16-1.188.457-1.828.457c-.906 0-1.668-.289-2.285-.867s-1.066-1.305-1.348-2.18c-.531.891-1.164 1.598-1.898 2.121s-1.469.785-2.203.785c-.578 0-1.102-.105-1.57-.316s-.867-.508-1.195-.891-.582-.832-.762-1.348-.27-1.078-.27-1.688c0-1.219.207-2.293.621-3.223s.941-1.707 1.582-2.332 1.348-1.094 2.121-1.406 1.52-.469 2.238-.469c.484 0 .93.066 1.336.199s.754.277 1.043.434.512.301.668.434.242.207.258.223c.172.203.258.414.258.633 0 .234-.086.441-.258.621s-.375.27-.609.27a.86.86 0 01-.633-.258 2.665 2.665 0 00-.656-.446c-.187-.094-.41-.176-.668-.246s-.551-.105-.879-.105c-.484 0-1 .109-1.547.328s-1.047.559-1.5 1.02-.832 1.039-1.137 1.734-.457 1.52-.457 2.473c0 .297.031.598.094.902s.172.582.328.832.367.453.633.609.594.234.984.234c.281 0 .605-.094.973-.281s.719-.477 1.055-.867.641-.883.914-1.477.465-1.297.574-2.109c.031-.219.133-.402.305-.551s.375-.223.609-.223c.219 0 .41.086.574.258s.254.367.27.586c.016.297.047.715.094 1.254s.152 1.074.316 1.605.41.992.738 1.383.781.586 1.359.586c.375 0 .746-.102 1.113-.305s.727-.473 1.078-.809.688-.719 1.008-1.148.613-.863.879-1.301.5-.859.703-1.266.375-.758.516-1.055a.892.892 0 01.82-.539c.266 0 .48.098.645.293s.246.402.246.621a.825.825 0 01-.071.331z"/><path fill="#24235A" d="M111.464 34.07c.25-.531.539-1.105.867-1.723s.68-1.25 1.055-1.898.773-1.293 1.195-1.934.859-1.242 1.313-1.805c.453-.547.91-.941 1.371-1.184s.895-.363 1.301-.363.762.082 1.066.246.555.387.75.668.344.609.445.984.152.781.152 1.219c0 .359-.035.84-.105 1.441s-.105 1.23-.105 1.887c0 .375.02.746.059 1.113s.109.695.211.984.254.523.457.703.469.27.797.27c.375 0 .75-.105 1.125-.316s.742-.492 1.102-.844.703-.742 1.031-1.172.625-.859.891-1.289.5-.844.703-1.242.367-.73.492-.996c.156-.359.43-.539.82-.539.266 0 .477.094.633.281s.234.391.234.609a.885.885 0 01-.07.352c-.063.125-.184.383-.363.773s-.422.844-.727 1.359-.66 1.055-1.066 1.617-.855 1.082-1.348 1.559-1.023.867-1.594 1.172-1.168.457-1.793.457c-.719 0-1.297-.152-1.734-.457s-.777-.691-1.02-1.16-.406-.992-.492-1.57a11.469 11.469 0 01-.094-2.59c.023-.32.051-.637.082-.949s.059-.605.082-.879.035-.504.035-.691c0-.484-.066-.813-.199-.984s-.285-.258-.457-.258c-.25 0-.535.145-.855.434s-.656.668-1.008 1.137-.703.996-1.055 1.582-.691 1.168-1.02 1.746-.625 1.129-.891 1.652-.484.957-.656 1.301c-.328.656-.66 1.098-.996 1.324s-.637.34-.902.34c-.484 0-.855-.191-1.113-.574s-.387-.848-.387-1.395v-1.477c0-2.953.004-5.77.012-8.449s.047-5.172.117-7.477.188-4.391.352-6.258.41-3.461.738-4.781.746-2.34 1.254-3.059 1.145-1.078 1.91-1.078c.656 0 1.211.18 1.664.539s.82.848 1.102 1.465.484 1.336.609 2.156.188 1.684.188 2.59c0 1.844-.168 3.652-.504 5.426s-.785 3.504-1.348 5.191-1.219 3.332-1.969 4.934-1.539 3.16-2.367 4.676v4.102l.023 1.102zm0-8.648c.656-1.438 1.254-2.84 1.793-4.207s1-2.73 1.383-4.09.684-2.738.902-4.137.328-2.855.328-4.371c0-.25-.012-.648-.035-1.195s-.094-1.102-.211-1.664-.297-1.055-.539-1.477-.582-.633-1.02-.633c-.344 0-.641.23-.891.691s-.469 1.086-.656 1.875-.344 1.707-.469 2.754-.227 2.156-.305 3.328-.137 2.375-.176 3.609-.066 2.434-.082 3.598-.023 2.254-.023 3.27l.001 2.649zm21.047-21.328c.094 2.391-.688 4.43-2.344 6.117-.203.172-.414.258-.633.258-.25 0-.461-.086-.633-.258s-.258-.379-.258-.621.086-.449.258-.621c1.297-1.328 1.914-2.93 1.852-4.805-.016-.25.059-.465.223-.645s.371-.27.621-.27c.234 0 .441.078.621.234s.277.361.293.611zm5.39 23.297c-.094.25-.207.531-.34.844s-.285.641-.457.984c-.141.266-.285.473-.434.621s-.34.223-.574.223c-.266 0-.477-.082-.633-.246s-.234-.355-.234-.574c0-.078.008-.145.023-.199s.055-.145.117-.27c.406-.781.707-1.465.902-2.051s.355-1.199.48-1.84c-.109-.359-.188-.664-.234-.914s-.07-.508-.07-.773c0-.516.109-.934.328-1.254s.523-.48.914-.48c.359 0 .645.156.855.469s.316.695.316 1.148c0 .25-.023.5-.07.75s-.109.563-.188.938c.359.891.719 1.68 1.078 2.367s.68 1.316.961 1.887.512 1.105.691 1.605.27 1 .27 1.5c0 .656-.133 1.281-.398 1.875s-.703 1.094-1.313 1.5c.078.016.156.023.234.023h.234c.891 0 1.711-.203 2.461-.609s1.426-.934 2.027-1.582 1.137-1.367 1.605-2.156.875-1.574 1.219-2.355c.156-.359.375-.539.656-.539.266 0 .473.094.621.281s.223.391.223.609a.885.885 0 01-.07.352c-.172.422-.395.902-.668 1.441s-.602 1.094-.984 1.664-.824 1.129-1.324 1.676-1.059 1.035-1.676 1.465-1.293.773-2.027 1.031-1.539.387-2.414.387c-1.047 0-2.02-.184-2.918-.551s-1.629-.973-2.191-1.816a.789.789 0 01-.141-.445c0-.234.09-.441.27-.621s.387-.27.621-.27a.86.86 0 01.633.258c.016.031.07.082.164.152s.207.148.34.234.289.16.469.223.363.094.551.094c.375 0 .691-.078.949-.234s.465-.348.621-.574.27-.469.34-.727.105-.48.105-.668c0-.391-.063-.781-.188-1.172s-.285-.781-.48-1.172-.406-.793-.633-1.207-.431-.849-.619-1.302z"/><path d="M8.831 71.333a6.006 6.006 0 01-2.328-2.295c-.563-.978-.845-2.073-.845-3.285s.281-2.307.845-3.285a6.013 6.013 0 012.336-2.295c.996-.552 2.109-.828 3.342-.828.924 0 1.777.156 2.559.468a5.323 5.323 0 011.99 1.368l-.834.846c-.973-.996-2.199-1.494-3.68-1.494-.983 0-1.878.228-2.684.684s-1.437 1.08-1.893 1.872-.684 1.68-.684 2.664.228 1.872.684 2.664 1.087 1.417 1.893 1.872c.806.457 1.7.684 2.684.684 1.493 0 2.719-.504 3.68-1.512l.834.846a5.376 5.376 0 01-1.999 1.377 6.797 6.797 0 01-2.567.477c-1.233 0-2.345-.276-3.333-.828zm24.871-11.88h1.315v11.448h6.966v1.152h-8.281v-12.6zm26.472 11.871a6.074 6.074 0 01-2.346-2.295c-.563-.972-.845-2.064-.845-3.276s.281-2.304.845-3.276c.563-.972 1.345-1.737 2.346-2.295s2.118-.837 3.351-.837c1.231 0 2.342.276 3.332.828a6.097 6.097 0 012.337 2.295c.568.978.853 2.073.853 3.285s-.284 2.307-.853 3.285a6.09 6.09 0 01-2.337 2.295c-.99.552-2.101.828-3.332.828-1.233 0-2.35-.279-3.351-.837zm6.015-1.026a4.851 4.851 0 001.866-1.872c.45-.798.676-1.689.676-2.673s-.226-1.875-.676-2.673a4.851 4.851 0 00-1.866-1.872c-.794-.45-1.683-.675-2.665-.675-.984 0-1.875.225-2.676.675a4.894 4.894 0 00-1.883 1.872c-.457.798-.685 1.689-.685 2.673s.228 1.875.685 2.673a4.894 4.894 0 001.883 1.872c.801.45 1.691.675 2.676.675.983 0 1.872-.225 2.665-.675zm21.746 1.413c-.848-.3-1.502-.696-1.965-1.188l.516-1.026c.45.457 1.049.825 1.795 1.107a6.486 6.486 0 002.311.423c1.113 0 1.949-.207 2.506-.621s.835-.951.835-1.611c0-.504-.15-.906-.453-1.206a3.052 3.052 0 00-1.11-.693c-.438-.162-1.049-.339-1.83-.531-.937-.24-1.684-.471-2.24-.693s-1.033-.561-1.43-1.017c-.398-.456-.596-1.074-.596-1.854 0-.636.166-1.215.498-1.737.331-.522.84-.939 1.527-1.251.688-.312 1.541-.468 2.56-.468.711 0 1.407.099 2.088.297a5.966 5.966 0 011.769.819l-.444 1.062a6.07 6.07 0 00-1.671-.783 6.16 6.16 0 00-1.741-.261c-1.091 0-1.911.213-2.462.639-.551.426-.826.975-.826 1.647 0 .504.151.909.453 1.215.303.306.682.54 1.138.702s1.069.339 1.839.531c.913.228 1.65.453 2.213.675.563.222 1.04.558 1.431 1.008.392.45.587 1.06.587 1.827 0 .636-.169 1.215-.507 1.737-.338.522-.855.936-1.555 1.242s-1.559.459-2.577.459a7.89 7.89 0 01-2.659-.45zm33.117-.81v1.152h-8.797v-12.6h8.53v1.152h-7.216v4.482h6.434v1.134h-6.434v4.68h7.483zm19.674-10.297h-4.372v-1.152h10.059v1.152h-4.372v11.448h-1.314V60.604z" fill="#898989"/><path fill="#5B5C5C" d="M6.019 50.869h141.75v.75H6.019z"/></svg>